<svg xmlns="http://www.w3.org/2000/svg" viewBox="0 0 576 384"><defs><style>.cls-1{isolation:isolate;}.cls-12,.cls-2{fill:none;}.cls-18,.cls-3,.cls-4{fill:#d0dbf4;}.cls-3{fill-rule:evenodd;}.cls-15,.cls-5{fill:#fcbf12;}.cls-13,.cls-17,.cls-6{mix-blend-mode:multiply;}.cls-13,.cls-7{fill:#e5e5e5;}.cls-8{fill:#fff;}.cls-11,.cls-12,.cls-14,.cls-15,.cls-16,.cls-18,.cls-19,.cls-20,.cls-8{stroke:#586ab1;stroke-width:2.5px;}.cls-11,.cls-12,.cls-15,.cls-19,.cls-20,.cls-8{stroke-linecap:round;stroke-linejoin:round;}.cls-20,.cls-9{fill:#5cc5cd;}.cls-10,.cls-16,.cls-17,.cls-19{fill:#d1d1d1;}.cls-11{fill:#e8e8e8;}.cls-14{fill:#ffcc4d;}.cls-14,.cls-16,.cls-18{stroke-miterlimit:10;}.cls-17{opacity:0.5;}.cls-21{fill:#586ab1;}</style></defs><title>account-rules-setup-spot-hero-desktop</title><g class="cls-1"><g id="Layer_1" data-name="Layer 1"><rect class="cls-2" x="0.36" y="-0.88" width="573.77" height="384"/><path class="cls-3" d="M287,352.25A145.95,145.95,0,1,0,141,206.3,145.94,145.94,0,0,0,287,352.25Z"/><path class="cls-4" d="M408.67,58.14l.05,0-.29,0a3,3,0,0,0-.54-.1c-4.66-1-6.68-5.48-7.35-7.41a3.42,3.42,0,0,0-6.68-.54l0-.3s-1.58,6.78-7.29,8.24a3.68,3.68,0,0,0-.75.13l-.41.08.08,0a3.43,3.43,0,0,0,.24,6.42l-.13,0c5.31.61,7.52,5.62,8.2,7.62a3.43,3.43,0,0,0,6.8-.25c.65-1.86,2.53-6,6.77-7.23h.19a3.43,3.43,0,0,0,1.15-6.67Z"/><path class="cls-4" d="M130.64,246.6l.07,0c-.12,0-.23,0-.35-.06a4.49,4.49,0,0,0-.64-.1c-5.55-1.08-8.07-6.34-8.9-8.61a4.05,4.05,0,0,0-7.93-.47l-.06-.36s-1.72,8.07-8.45,9.94a4.16,4.16,0,0,0-.88.18c-.17,0-.32.08-.49.1l.09,0a4.07,4.07,0,0,0,.45,7.61l-.16,0c6.32.6,9.06,6.49,9.92,8.84a4.06,4.06,0,0,0,8-.45c.72-2.23,2.86-7.19,7.85-8.74h.23a4.07,4.07,0,0,0,1.2-7.93Z"/><path class="cls-4" d="M198.58,50.64l0,0-.23,0a3.1,3.1,0,0,0-.42-.08c-3.6-.77-5.17-4.24-5.68-5.73a2.65,2.65,0,0,0-5.17-.41l0-.24s-1.22,5.24-5.64,6.37a2.62,2.62,0,0,0-.57.11c-.11,0-.21,0-.32.06l.05,0a2.66,2.66,0,0,0,.19,5l-.1,0c4.12.48,5.82,4.35,6.35,5.9a2.65,2.65,0,0,0,5.26-.19c.5-1.44,2-4.65,5.23-5.59h.15a2.65,2.65,0,0,0,.89-5.16Z"/><path class="cls-5" d="M164,75.93l.05,0-.28,0a3,3,0,0,0-.52-.1c-4.51-1-6.46-5.3-7.1-7.16a3.31,3.31,0,0,0-6.46-.52l0-.3s-1.54,6.56-7.06,8a2.78,2.78,0,0,0-.71.13c-.14,0-.26.06-.4.07l.07,0a3.32,3.32,0,0,0,.23,6.21l-.12,0c5.14.6,7.27,5.44,7.93,7.37a3.31,3.31,0,0,0,6.57-.23c.63-1.81,2.45-5.82,6.54-7h.19A3.32,3.32,0,0,0,164,75.93Z"/><g class="cls-6"><rect class="cls-7" x="300.4" y="100.07" width="107.4" height="150.14" rx="1" transform="translate(-12.03 26.79) rotate(-4.26)"/><rect class="cls-7" x="296.49" y="101.29" width="105.39" height="15.71" transform="translate(-7.14 26.24) rotate(-4.26)"/><rect class="cls-7" x="305.15" y="125.48" width="66.6" height="2.98" rx="1" transform="translate(-8.5 25.49) rotate(-4.26)"/><rect class="cls-7" x="305.9" y="135.49" width="66.6" height="2.98" rx="1" transform="translate(-9.24 25.57) rotate(-4.26)"/><rect class="cls-7" x="306.65" y="145.51" width="66.6" height="2.98" rx="1" transform="translate(-9.98 25.66) rotate(-4.26)"/><rect class="cls-7" x="307.89" y="161.68" width="90.79" height="2.98" rx="1" transform="translate(-11.14 26.69) rotate(-4.26)"/><rect class="cls-7" x="308.63" y="171.7" width="90.79" height="2.98" rx="1" transform="translate(-11.89 26.78) rotate(-4.26)"/><rect class="cls-7" x="309.38" y="181.72" width="90.79" height="2.98" rx="1" transform="translate(-12.63 26.86) rotate(-4.26)"/><rect class="cls-7" x="313.03" y="202.25" width="88.3" height="2.98" rx="1" transform="translate(-14.15 27.09) rotate(-4.26)"/><rect class="cls-7" x="313.77" y="212.27" width="88.3" height="2.98" rx="1" transform="translate(-14.89 27.18) rotate(-4.26)"/><rect class="cls-7" x="314.52" y="222.29" width="88.3" height="2.98" rx="1" transform="translate(-15.63 27.26) rotate(-4.26)"/><rect class="cls-7" x="379.73" y="121.71" width="16.74" height="23.44" transform="translate(-8.84 29.2) rotate(-4.26)"/></g><rect class="cls-8" x="294.99" y="95.32" width="107.4" height="150.14" rx="1" transform="translate(-11.69 26.37) rotate(-4.26)"/><rect class="cls-9" x="291.07" y="96.53" width="105.39" height="15.71" transform="translate(-6.8 25.82) rotate(-4.26)"/><rect class="cls-10" x="299.74" y="120.72" width="66.6" height="2.98" rx="1" transform="translate(-8.16 25.08) rotate(-4.26)"/><rect class="cls-10" x="300.48" y="130.74" width="66.6" height="2.98" rx="1" transform="translate(-8.9 25.16) rotate(-4.26)"/><rect class="cls-10" x="301.23" y="140.75" width="66.6" height="2.98" rx="1" transform="translate(-9.64 25.24) rotate(-4.26)"/><rect class="cls-10" x="302.47" y="156.92" width="90.79" height="2.98" rx="1" transform="translate(-10.81 26.28) rotate(-4.26)"/><rect class="cls-10" x="303.21" y="166.94" width="90.79" height="2.98" rx="1" transform="translate(-11.55 26.36) rotate(-4.26)"/><rect class="cls-10" x="303.96" y="176.96" width="90.79" height="2.98" rx="1" transform="translate(-12.29 26.44) rotate(-4.26)"/><rect class="cls-10" x="307.61" y="197.49" width="88.3" height="2.98" rx="1" transform="translate(-13.81 26.68) rotate(-4.26)"/><rect class="cls-10" x="308.35" y="207.51" width="88.3" height="2.98" rx="1" transform="matrix(1, -0.07, 0.07, 1, -14.55, 26.76)"/><rect class="cls-10" x="309.1" y="217.53" width="88.3" height="2.98" rx="1" transform="translate(-15.29 26.84) rotate(-4.26)"/><rect class="cls-4" x="374.31" y="116.95" width="16.74" height="23.44" transform="translate(-8.5 28.78) rotate(-4.26)"/><path class="cls-5" d="M450.77,109.21l0,0-.23,0a3.5,3.5,0,0,0-.45-.07c-3.81-.75-5.53-4.37-6.1-5.93a2.79,2.79,0,0,0-5.46-.34l0-.24s-1.19,5.55-5.82,6.82a2.91,2.91,0,0,0-.6.13l-.34.07.06,0a2.8,2.8,0,0,0,.3,5.23l-.11,0c4.35.42,6.22,4.47,6.81,6.09a2.79,2.79,0,0,0,5.54-.3c.5-1.53,2-4.94,5.41-6h.15a2.8,2.8,0,0,0,.84-5.46Z"/><g class="cls-6"><rect class="cls-7" x="304.64" y="167.73" width="139.66" height="65.46" rx="1" transform="translate(-12.8 26.01) rotate(-3.91)"/><path class="cls-7" d="M379.18,209l62-45.93L303,172.54l67.85,37S375.47,211.74,379.18,209Z"/><line class="cls-7" x1="307.7" y1="236.96" x2="359.67" y2="203.66"/><line class="cls-7" x1="445.87" y1="227.51" x2="389.86" y2="201.6"/></g><rect class="cls-11" x="309.42" y="162.13" width="139.66" height="65.46" rx="1" transform="translate(-12.41 26.32) rotate(-3.91)"/><path class="cls-8" d="M384,203.42l62-45.92-138.17,9.44,67.85,37S380.25,206.14,384,203.42Z"/><line class="cls-12" x1="312.48" y1="231.36" x2="364.44" y2="198.06"/><line class="cls-12" x1="450.65" y1="221.92" x2="394.63" y2="196"/><rect class="cls-13" x="366.54" y="268.72" width="60.58" height="59.72" rx="1" transform="translate(-88.17 191.8) rotate(-24.54)"/><rect class="cls-14" x="368.7" y="261.12" width="62.51" height="59.72" rx="1" transform="translate(-84.73 192.41) rotate(-24.54)"/><rect class="cls-13" x="342.5" y="275.27" width="62.51" height="57.95" rx="1" transform="translate(-36.37 51.16) rotate(-7.47)"/><rect class="cls-14" x="346.61" y="267.26" width="62.51" height="59.72" rx="1" transform="translate(-35.41 51.63) rotate(-7.47)"/><rect class="cls-13" x="148.62" y="114.54" width="157.6" height="214.43" rx="5" transform="matrix(0.96, -0.29, 0.29, 0.96, -54.94, 76.26)"/><path class="cls-5" d="M118.38,194l0,0a1.81,1.81,0,0,1-.23,0,2,2,0,0,0-.42-.07c-3.64-.67-5.32-4.1-5.88-5.58a2.66,2.66,0,0,0-5.2-.27l0-.23s-1.08,5.3-5.48,6.56a2.86,2.86,0,0,0-.58.13l-.32.07.06,0a2.67,2.67,0,0,0,.34,5l-.1,0c4.15.35,6,4.19,6.55,5.73a2.66,2.66,0,0,0,5.27-.34c.46-1.47,1.84-4.73,5.1-5.78h.15a2.67,2.67,0,0,0,.74-5.21Z"/><path class="cls-5" d="M365,41.11h0l-.23,0a2,2,0,0,0-.43-.07c-3.7-.7-5.4-4.19-6-5.7a2.71,2.71,0,0,0-5.29-.29l0-.24s-1.11,5.39-5.6,6.66a2.85,2.85,0,0,0-.58.12,1.83,1.83,0,0,1-.32.07l.06,0a2.73,2.73,0,0,0-1.6,2.55A2.7,2.7,0,0,0,347,46.7l-.1,0c4.21.38,6.06,4.29,6.64,5.86a2.7,2.7,0,0,0,5.36-.34c.48-1.48,1.89-4.8,5.2-5.85h.16a2.72,2.72,0,0,0,.77-5.3Z"/><rect class="cls-15" x="152.41" y="106.9" width="157.6" height="214.43" rx="5" transform="translate(-52.54 77.04) rotate(-17.02)"/><rect class="cls-8" x="164.51" y="122.09" width="132.7" height="185.83" rx="1" transform="translate(-52.81 76.97) rotate(-17.02)"/><rect class="cls-10" x="161.13" y="109.14" width="69.58" height="6.06" transform="translate(-24.25 62.25) rotate(-17.02)"/><path class="cls-16" d="M246,93.1a3,3,0,0,0-3.8-1.59l-28.66,8.77a15.44,15.44,0,0,0-29.51,9s0,0,0,.06l-.38.12-28.26,8.65a3,3,0,0,0-2.26,3.44l6.92,22.61L253,115.7Zm-45.73,16.76a6.19,6.19,0,1,1,4.11-7.73A6.19,6.19,0,0,1,200.31,109.86Z"/><rect class="cls-17" x="157.17" y="118.81" width="94.97" height="10.36" transform="translate(-27.32 65.32) rotate(-17.02)"/><rect class="cls-10" x="197.14" y="158.61" width="68.99" height="5.22" rx="0.91" transform="translate(-37.04 74.84) rotate(-17.02)"/><rect class="cls-10" x="199.86" y="167.51" width="68.99" height="5.22" rx="0.91" transform="translate(-39.53 76.03) rotate(-17.02)"/><rect class="cls-18" x="167.34" y="170.6" width="23.22" height="23.22" rx="1" transform="matrix(0.96, -0.29, 0.29, 0.96, -45.49, 60.34)"/><polyline class="cls-12" points="172.37 183.28 181.67 188.36 188.51 161.79"/><rect class="cls-10" x="209.8" y="199.99" width="68.99" height="5.22" rx="0.91" transform="translate(-48.59 80.36) rotate(-17.02)"/><rect class="cls-10" x="212.52" y="208.89" width="68.99" height="5.22" rx="0.91" transform="translate(-51.08 81.55) rotate(-17.02)"/><rect class="cls-18" x="180" y="211.98" width="23.22" height="23.22" rx="1" transform="translate(-57.04 65.86) rotate(-17.02)"/><polyline class="cls-12" points="185.04 224.66 194.34 229.74 201.17 203.17"/><rect class="cls-10" x="222.46" y="241.37" width="68.99" height="5.22" rx="0.91" transform="translate(-60.15 85.88) rotate(-17.02)"/><rect class="cls-10" x="225.19" y="250.27" width="68.99" height="5.22" rx="0.91" transform="translate(-62.64 87.07) rotate(-17.02)"/><rect class="cls-18" x="192.66" y="253.36" width="23.22" height="23.22" rx="1" transform="translate(-68.6 71.38) rotate(-17.02)"/><polyline class="cls-12" points="197.7 266.04 207 271.12 213.84 244.55"/><g class="cls-6"><polygon class="cls-7" points="162.37 305.85 151.82 300.98 152.04 297.85 169.4 298.25 166.63 307.89 162.37 305.85"/><rect class="cls-7" x="280.39" y="325.78" width="4.92" height="12.06" rx="1" transform="translate(672.95 137.05) rotate(103.91)"/><rect class="cls-7" x="217.35" y="257.56" width="9.92" height="118.51" rx="2" transform="translate(583.3 177.21) rotate(103.91)"/><path class="cls-7" d="M276.15,324.09l.57-2.32L275.1,321a207.16,207.16,0,0,0-32.64-9l-.39,1.55a3.33,3.33,0,0,1,1.9,1.64l2.21.79,2.21-1.22s15.3,3.79,18.77,5.95l-.22.88a6,6,0,0,0-4.4,4.43c-.81,3.67,3.78,6.57,3.78,6.57l7.46,1.85.2-.77s-4.55-1.48-4.39-5S276.05,324.07,276.15,324.09Z"/><line class="cls-7" x1="251.51" y1="319.16" x2="249.22" y2="328.37"/><line class="cls-7" x1="188.42" y1="303.63" x2="186.18" y2="312.65"/><line class="cls-7" x1="183.7" y1="302.46" x2="181.46" y2="311.48"/><line class="cls-7" x1="178.97" y1="301.29" x2="176.74" y2="310.31"/><line class="cls-7" x1="174.25" y1="300.12" x2="172.02" y2="309.14"/><polyline class="cls-7" points="166.38 298.2 152.04 297.85 151.31 300.78 164.16 307.17"/><path class="cls-7" d="M147.94,298.39h0a.8.8,0,0,1,1-.58l2.49-.16c.26-.19.33,1.23.23,1.65h0c-.11.43-.63,1.22-1.06,1.11l-2-1.05A.81.81,0,0,1,147.94,298.39Z"/></g><polygon class="cls-10" points="159.46 299.99 148.9 295.13 149.12 292 166.48 292.4 163.71 302.03 159.46 299.99"/><rect class="cls-19" x="277.47" y="319.92" width="4.92" height="12.06" rx="1" transform="translate(663.64 132.61) rotate(103.91)"/><rect class="cls-20" x="214.44" y="251.71" width="9.92" height="118.51" rx="2" transform="translate(573.99 172.77) rotate(103.91)"/><path class="cls-21" d="M273.23,318.24l.57-2.33-1.61-.75a207.08,207.08,0,0,0-32.65-9l-.38,1.55a3.32,3.32,0,0,1,1.89,1.65l2.22.78,2.2-1.22s15.3,3.79,18.78,5.95l-.22.88a6,6,0,0,0-4.41,4.43c-.81,3.68,3.79,6.58,3.79,6.58l7.46,1.84.19-.77s-4.55-1.48-4.38-5S273.13,318.21,273.23,318.24Z"/><line class="cls-12" x1="248.59" y1="313.3" x2="246.31" y2="322.51"/><line class="cls-12" x1="185.5" y1="297.78" x2="183.27" y2="306.79"/><line class="cls-12" x1="180.78" y1="296.61" x2="178.54" y2="305.63"/><line class="cls-12" x1="176.06" y1="295.44" x2="173.82" y2="304.46"/><line class="cls-12" x1="171.33" y1="294.27" x2="169.1" y2="303.29"/><polyline class="cls-12" points="163.47 292.34 149.12 292 148.39 294.92 161.24 301.31"/><path class="cls-21" d="M145,292.53h0a.8.8,0,0,1,1-.58l2.48-.16c.26-.18.33,1.23.23,1.66h0c-.11.43-.63,1.21-1.05,1.1l-2-1A.81.81,0,0,1,145,292.53Z"/><path class="cls-4" d="M470.51,263.13h0l-.25-.05a2.21,2.21,0,0,0-.46-.08c-3.95-.85-5.66-4.65-6.23-6.28a2.9,2.9,0,0,0-5.66-.46l0-.26s-1.34,5.75-6.19,7a2.78,2.78,0,0,0-.63.11l-.35.07.07,0a2.91,2.91,0,0,0,.2,5.45l-.1,0c4.5.52,6.38,4.76,6.95,6.46a2.91,2.91,0,0,0,5.77-.21c.54-1.58,2.15-5.09,5.74-6.13h.16a2.91,2.91,0,0,0,1-5.66Z"/></g></g></svg>